<svg width="130" height="40" viewBox="0 0 130 40" version="1.1" xmlns="http://www.w3.org/2000/svg" xmlns:xlink="http://www.w3.org/1999/xlink" xml:space="preserve" xmlns:serif="http://www.serif.com/" style="fill-rule:evenodd;clip-rule:evenodd;stroke-linejoin:round;stroke-miterlimit:2;">
    <g id="XMLID_401_">
        <g id="XMLID_421_">
            <path id="XMLID_435_" d="M33.535,38.956L35.25,30.321L38.03,36.59L40.869,30.321L42.407,38.956L41.165,38.956L40.396,34.106L38.03,39.311L35.723,34.047L34.836,38.897L33.535,38.897L33.535,38.956Z" style="fill:#d3a825;fill-rule:nonzero;"/>
            <path id="XMLID_432_" d="M45.837,34.875C45.837,33.751 46.251,32.746 47.079,31.977C47.907,31.149 48.913,30.735 50.036,30.735C51.16,30.735 52.166,31.149 52.994,31.977C53.822,32.805 54.236,33.81 54.236,34.934C54.236,36.117 53.822,37.063 52.994,37.891C52.166,38.719 51.16,39.133 49.977,39.133C48.913,39.133 48.025,38.778 47.197,38.069C46.31,37.241 45.837,36.176 45.837,34.875ZM47.079,34.934C47.079,35.821 47.375,36.531 47.966,37.122C48.558,37.714 49.268,38.01 50.036,38.01C50.864,38.01 51.574,37.714 52.166,37.122C52.757,36.531 53.053,35.821 53.053,34.934C53.053,34.047 52.757,33.337 52.166,32.746C51.574,32.154 50.864,31.859 50.036,31.859C49.208,31.859 48.499,32.154 47.907,32.746C47.375,33.337 47.079,34.047 47.079,34.934Z" style="fill:#d3a825;fill-rule:nonzero;"/>
            <path id="XMLID_430_" d="M57.903,38.956L57.903,30.38L63.758,36.531L63.758,30.912L65,30.912L65,39.429L59.145,33.278L59.145,38.897L57.903,38.897L57.903,38.956Z" style="fill:#d3a825;fill-rule:nonzero;"/>
            <path id="XMLID_427_" d="M73.872,37.004L70.441,37.004L69.554,38.956L68.253,38.956L72.216,30.38L76.06,38.956L74.759,38.956L73.872,37.004ZM73.399,35.88L72.216,33.16L70.974,35.88L73.399,35.88Z" style="fill:#d3a825;fill-rule:nonzero;"/>
            <path id="XMLID_425_" d="M84.754,31.326L84.754,32.746C84.045,32.154 83.335,31.859 82.566,31.859C81.738,31.859 81.028,32.154 80.496,32.746C79.904,33.337 79.668,34.047 79.668,34.934C79.668,35.762 79.964,36.472 80.496,37.063C81.087,37.655 81.738,37.95 82.566,37.95C82.98,37.95 83.335,37.891 83.631,37.714C83.808,37.655 83.985,37.536 84.163,37.418C84.34,37.3 84.518,37.182 84.754,37.004L84.754,38.483C84.045,38.897 83.335,39.074 82.566,39.074C81.442,39.074 80.437,38.66 79.609,37.891C78.781,37.063 78.367,36.117 78.367,34.934C78.367,33.929 78.722,32.982 79.372,32.213C80.2,31.208 81.265,30.735 82.625,30.735C83.394,30.735 84.104,30.971 84.754,31.326Z" style="fill:#d3a825;fill-rule:nonzero;"/>
            <path id="XMLID_422_" d="M87.948,34.875C87.948,33.751 88.362,32.746 89.19,31.977C90.018,31.149 91.024,30.735 92.147,30.735C93.271,30.735 94.277,31.149 95.105,31.977C95.933,32.805 96.347,33.81 96.347,34.934C96.347,36.117 95.933,37.063 95.105,37.891C94.277,38.719 93.271,39.133 92.088,39.133C91.024,39.133 90.136,38.778 89.308,38.069C88.421,37.241 87.948,36.176 87.948,34.875ZM89.19,34.934C89.19,35.821 89.486,36.531 90.077,37.122C90.669,37.714 91.379,38.01 92.147,38.01C92.975,38.01 93.685,37.714 94.277,37.122C94.868,36.531 95.164,35.821 95.164,34.934C95.164,34.047 94.868,33.337 94.277,32.746C93.685,32.154 92.975,31.859 92.147,31.859C91.319,31.859 90.61,32.154 90.018,32.746C89.486,33.337 89.19,34.047 89.19,34.934Z" style="fill:#d3a825;fill-rule:nonzero;"/>
        </g>
        <g id="XMLID_418_">
            <path id="XMLID_419_" d="M58.612,11.217L52.047,0.867L56.424,0.867L60.505,7.727L64.645,0.867L68.904,0.867L62.338,11.158L62.338,17.96L58.553,17.96L58.553,11.217L58.612,11.217Z" style="fill:#fff;fill-rule:nonzero;"/>
        </g>
        <g id="XMLID_415_">
            <path id="XMLID_416_" d="M72.985,0.867L77.006,0.867L81.501,8.082L85.996,0.867L90.018,0.867L90.018,17.96L86.292,17.96L86.292,6.781L81.501,14.056L81.442,14.056L76.711,6.84L76.711,17.9L73.044,17.9L73.044,0.867L72.985,0.867Z" style="fill:#fff;fill-rule:nonzero;"/>
        </g>
        <g id="XMLID_411_">
            <path id="XMLID_412_" d="M94.454,9.443C94.454,4.534 98.298,0.571 103.562,0.571C108.826,0.571 112.611,4.475 112.611,9.324L112.611,9.384C112.611,14.233 108.767,18.196 103.503,18.196C98.239,18.196 94.454,14.293 94.454,9.443ZM108.708,9.443C108.708,6.485 106.579,4.001 103.562,4.001C100.546,4.001 98.417,6.367 98.417,9.324L98.417,9.384C98.417,12.341 100.546,14.766 103.562,14.766C106.579,14.766 108.708,12.341 108.708,9.443Z" style="fill:#fff;fill-rule:nonzero;"/>
        </g>
        <g id="XMLID_409_">
            <path id="XMLID_410_" d="M121.483,14.529L121.483,0.867L117.698,0.867L117.698,17.96L127.634,17.96C128.876,17.96 130,14.529 130,14.529L121.483,14.529Z" style="fill:#fff;fill-rule:nonzero;"/>
        </g>
        <g id="XMLID_407_">
            <path id="XMLID_408_" d="M43.944,7.727C40.987,6.959 40.278,6.604 40.278,5.48L40.278,5.421C40.278,4.593 41.046,3.942 42.466,3.942C43.708,3.942 44.95,4.415 46.251,5.184L48.203,2.286C46.606,1.222 44.713,0.571 42.525,0.571C39.035,0.571 36.551,2.641 36.551,5.717L36.551,5.776C36.551,9.147 38.799,10.093 42.229,10.98C45.068,11.69 45.66,12.222 45.66,13.169L45.66,13.228C45.66,14.233 44.713,14.825 43.176,14.825C41.46,14.825 39.982,14.174 38.562,13.169L36.611,16.067C38.503,17.486 40.81,18.196 43.116,18.196C46.783,18.196 49.386,16.303 49.386,12.873L49.386,12.814C49.386,9.857 47.434,8.615 43.944,7.727Z" style="fill:#fff;fill-rule:nonzero;"/>
        </g>
        <g id="XMLID_405_">
            <path id="XMLID_406_" d="M3.726,14.588L3.726,10.98L9.522,10.98C10.291,10.98 11.77,7.668 11.77,7.668L11.77,7.609L3.726,7.609L3.726,4.12L10.587,4.12C12.125,4.12 12.894,0.748 12.894,0.748L0,0.748L0,17.841L10.705,17.841C11.356,17.841 13.012,14.47 13.012,14.47L3.726,14.47L3.726,14.588Z" style="fill:#fff;fill-rule:nonzero;"/>
        </g>
        <path id="XMLID_404_" d="M24.9,12.282L20.996,18.137L16.738,18.137L22.712,9.443L16.975,1.044L21.41,1.044L26.852,9.443" style="fill:#fff;fill-rule:nonzero;"/>
        <path id="XMLID_403_" d="M27.502,8.437L32.825,1.044L28.567,1.044L26.379,4.061C25.787,4.829 25.787,5.894 26.319,6.722L27.502,8.437Z" style="fill:#d3a825;fill-rule:nonzero;"/>
        <path id="XMLID_402_" d="M27.502,10.744L32.825,18.137L28.567,18.137L26.379,15.121C25.787,14.352 25.787,13.287 26.319,12.459L27.502,10.744Z" style="fill:#d3a825;fill-rule:nonzero;"/>
    </g>
</svg>